<?xml version="1.0" encoding="UTF-8" standalone="no"?>
<!-- Generator: Gravit.io -->

<svg
   xmlns:dc="http://purl.org/dc/elements/1.1/"
   xmlns:cc="http://creativecommons.org/ns#"
   xmlns:rdf="http://www.w3.org/1999/02/22-rdf-syntax-ns#"
   xmlns:svg="http://www.w3.org/2000/svg"
   xmlns="http://www.w3.org/2000/svg"
   xmlns:sodipodi="http://sodipodi.sourceforge.net/DTD/sodipodi-0.dtd"
   xmlns:inkscape="http://www.inkscape.org/namespaces/inkscape"
   style="isolation:isolate"
   viewBox="0 0 681 73"
   width="681"
   height="73"
   version="1.1"
   id="svg3777"
   sodipodi:docname="verdanditeam.svg"
   inkscape:version="0.92.2 2405546, 2018-03-11">
  <metadata
     id="metadata3781">
    <rdf:RDF>
      <cc:Work
         rdf:about="">
        <dc:format>image/svg+xml</dc:format>
        <dc:type
           rdf:resource="http://purl.org/dc/dcmitype/StillImage" />
        <dc:title></dc:title>
      </cc:Work>
    </rdf:RDF>
  </metadata>
  <sodipodi:namedview
     pagecolor="#ffffff"
     bordercolor="#666666"
     borderopacity="1"
     objecttolerance="10"
     gridtolerance="10"
     guidetolerance="10"
     inkscape:pageopacity="0"
     inkscape:pageshadow="2"
     inkscape:window-width="1362"
     inkscape:window-height="729"
     id="namedview3779"
     showgrid="false"
     units="px"
     inkscape:zoom="1.086"
     inkscape:cx="400"
     inkscape:cy="250"
     inkscape:window-x="0"
     inkscape:window-y="18"
     inkscape:window-maximized="0"
     inkscape:current-layer="svg3777" />
  <defs
     id="defs3770">
    <clipPath
       id="_clipPath_5zEUGGp3RN2kRqJa866wq1gCHVc2HInW">
      <rect
         width="800"
         height="500"
         id="rect3767"
         x="0"
         y="0" />
    </clipPath>
  </defs>
  <g
     clip-path="url(#_clipPath_5zEUGGp3RN2kRqJa866wq1gCHVc2HInW)"
     id="g3775"
     transform="translate(-59.852671,-213.37201)"
     style="fill:#ffffff">
    <g
       id="Group"
       style="fill:#ffffff">
      <path
         d="m 501.443,226.245 h -22.216 v -12.012 h 57.617 v 12.012 h -22.217 v 58.008 h -13.184 z m 40.284,33.008 v 0 0 q 0,-11.377 7.153,-18.579 v 0 0 q 7.153,-7.202 19.018,-7.202 v 0 0 q 12.745,0 19.483,7.812 v 0 0 q 5.615,6.494 5.664,17.871 v 0 0 q 0,2.295 -0.244,4.785 v 0 h -38.477 v 0 q 0.586,4.688 4.492,7.593 v 0 0 q 3.907,2.905 10.205,2.905 v 0 0 q 3.565,0 7.374,-1.269 v 0 0 q 3.808,-1.27 5.81,-3.32 v 0 l 7.813,7.714 v 0 q -3.711,3.907 -9.473,5.958 v 0 0 q -5.762,2.05 -11.719,2.05 v 0 0 q -12.597,0 -19.848,-7.153 v 0 0 q -7.251,-7.153 -7.251,-19.165 z m 12.793,-5.42 v 0 h 26.611 v 0 q -0.586,-4.687 -4.004,-7.129 v 0 0 q -3.418,-2.441 -8.789,-2.441 v 0 0 q -5.078,0 -8.789,2.441 v 0 0 q -3.711,2.442 -5.029,7.129 z m 44.97,5.713 v 0 0 q 0,-8.252 3.443,-14.185 v 0 0 q 3.442,-5.932 9.204,-8.764 v 0 0 q 5.664,-2.832 12.793,-2.832 v 0 0 q 0.146,0 0.244,0 v 0 0 q 4.98,0 9.302,2.173 v 0 0 q 4.321,2.172 6.372,5.834 v 0 l 0.439,-6.835 h 11.67 v 49.316 h -11.475 l -0.634,-7.178 v 0 q -1.953,4.053 -6.641,6.323 v 0 0 q -4.687,2.271 -9.326,2.369 v 0 0 q -0.098,0 -0.244,0 v 0 0 q -7.227,-0.049 -12.793,-2.881 v 0 0 q -5.664,-2.93 -9.009,-8.911 v 0 0 q -3.345,-5.982 -3.345,-14.429 z m 16.309,-10.889 v 0 0 q -4.151,4.004 -4.151,10.889 v 0 0 q 0,6.885 4.151,10.937 v 0 0 q 4.15,4.053 10.449,4.053 v 0 0 q 3.467,0 6.274,-1.294 v 0 0 q 2.808,-1.294 4.541,-3.393 v 0 0 q 1.734,-2.1 2.662,-4.786 v 0 0 q 0.927,-2.685 0.927,-5.468 v 0 0 q 0,-2.783 -0.927,-5.469 v 0 0 q -0.928,-2.686 -2.662,-4.785 v 0 0 q -1.733,-2.1 -4.541,-3.394 v 0 0 q -2.807,-1.294 -6.274,-1.294 v 0 0 q -6.299,0 -10.449,4.004 z m 59.668,35.596 H 663.26 v -49.414 h 11.279 l 0.928,6.006 v 0 q 1.806,-3.467 5.42,-5.127 v 0 0 q 3.613,-1.66 7.568,-1.66 v 0 0 q 4.834,0 8.74,2.197 v 0 0 q 3.907,2.197 5.86,6.982 v 0 0 q 3.125,-4.931 7.202,-6.958 v 0 0 q 4.077,-2.026 9.302,-2.026 v 0 0 q 10.351,0 15.625,6.055 v 0 0 q 5.273,6.054 5.273,17.334 v 0 26.611 H 728.25 v -26.611 0 q 0,-5.274 -2.295,-8.643 v 0 0 q -2.295,-3.369 -6.982,-3.369 v 0 0 q -4.785,0 -7.74,3.564 v 0 0 q -2.954,3.565 -2.954,8.643 v 0 26.416 h -12.207 v -26.416 0 q 0,-5.176 -2.661,-8.789 v 0 0 q -2.661,-3.613 -7.446,-3.613 v 0 0 q -4.736,0 -7.617,3.637 v 0 0 q -2.881,3.638 -2.881,8.765 v 0 z m -587.164,0.195 -28.76,-70.215 h 5.762 l 25.927,64.014 25.879,-64.014 h 5.811 l -28.809,70.215 z m 34.185,-24.902 v 0 0 q 0,-7.227 3.369,-13.11 v 0 0 q 3.37,-5.884 9.107,-9.131 v 0 0 q 5.737,-3.247 12.622,-3.247 v 0 0 q 4.248,0 8.057,1.025 v 0 0 q 3.808,1.025 7.08,3.223 v 0 0 q 3.271,2.197 5.517,5.42 v 0 0 q 2.246,3.125 3.272,7.812 v 0 0 q 0.683,3.076 0.683,6.543 v 0 0 q 0,1.807 -0.195,3.76 v 0 h -44.482 v 0 q 0.732,8.447 6.42,13.379 v 0 0 q 5.689,4.931 13.648,4.931 v 0 0 q 5.127,0 10.132,-2.002 v 0 0 q 5.005,-2.002 7.69,-5.517 v 0 l 3.516,2.832 v 0 q -3.467,4.541 -9.302,7.007 v 0 0 q -5.835,2.466 -12.036,2.466 v 0 0 q -6.982,0 -12.647,-3.028 v 0 0 q -5.664,-3.027 -9.057,-8.862 v 0 0 q -3.394,-5.835 -3.394,-13.501 z m 5.03,-2.002 v 0 h 40.087 v 0 q -0.048,-9.033 -5.493,-14.014 v 0 0 q -5.444,-4.98 -14.526,-4.98 v 0 0 q -7.91,0 -13.574,5.078 v 0 0 q -5.664,5.078 -6.494,13.916 z m 62.06,26.709 h -4.883 v -49.414 h 4.59 l 0.195,8.838 v 0 q 2.149,-4.688 6.69,-7.007 v 0 0 q 4.541,-2.319 9.717,-2.319 v 0 0 q 0.244,0 0.488,0 v 0 0 q 5.273,0 10.107,2.88 v 0 l -2.197,4.004 v 0 q -3.662,-2.295 -8.398,-2.295 v 0 0 q -6.836,0.049 -11.573,4.883 v 0 0 q -4.736,4.834 -4.736,11.621 v 0 z m 31.543,-24.707 v 0 0 q 0,-5.957 1.929,-10.84 v 0 0 q 1.929,-4.883 5.298,-8.057 v 0 0 q 3.369,-3.173 7.861,-4.882 v 0 0 q 4.492,-1.709 9.717,-1.709 v 0 0 q 6.689,0 12.158,2.905 v 0 0 q 5.469,2.905 8.35,8.667 v 0 -31.397 h 4.785 v 70.02 h -4.785 v -10.889 0 q -3.028,5.518 -8.594,8.594 v 0 0 q -5.567,3.076 -12.012,3.076 v 0 0 q -10.742,0 -17.724,-6.787 v 0 0 q -6.983,-6.787 -6.983,-18.701 z m 4.834,0 v 0 0 q 0,9.863 5.713,15.283 v 0 0 q 5.713,5.42 14.453,5.42 v 0 0 q 8.789,0 14.502,-5.811 v 0 0 q 5.713,-5.81 5.713,-14.99 v 0 0 q 0,-9.131 -5.786,-14.917 v 0 0 q -5.786,-5.786 -14.429,-5.786 v 0 0 q -5.664,0 -10.156,2.246 v 0 0 q -4.492,2.246 -7.251,7.031 v 0 0 q -2.759,4.786 -2.759,11.524 z m 60.034,13.257 v 0 0 q -3.393,-5.884 -3.393,-13.257 v 0 0 q 0,-7.373 3.393,-13.208 v 0 0 q 3.394,-5.835 9.107,-8.96 v 0 0 q 5.713,-3.125 12.597,-3.125 v 0 0 q 6.299,0 11.768,2.905 v 0 0 q 5.469,2.905 8.447,8.472 v 0 -10.791 h 4.883 v 49.414 h -4.883 v -10.498 0 q -3.467,5.615 -8.74,8.447 v 0 0 q -5.273,2.832 -11.475,2.832 v 0 0 q -6.884,0 -12.597,-3.174 v 0 0 q -5.713,-3.173 -9.107,-9.057 z m 7.349,-28.125 v 0 0 q -5.811,5.737 -5.811,14.868 v 0 0 q 0,9.131 5.811,14.917 v 0 0 q 5.81,5.786 14.355,5.786 v 0 0 q 4.981,0 9.009,-1.782 v 0 0 q 4.028,-1.782 6.494,-4.688 v 0 0 q 2.466,-2.905 3.809,-6.616 v 0 0 q 1.343,-3.711 1.343,-7.568 v 0 0 q 0,-3.858 -1.343,-7.569 v 0 0 q -1.343,-3.711 -3.809,-6.616 v 0 0 q -2.466,-2.905 -6.494,-4.687 v 0 0 q -4.028,-1.783 -9.009,-1.783 v 0 0 q -8.545,0 -14.355,5.738 z m 57.666,39.575 h -4.883 v -49.414 h 4.785 v 8.838 0 q 2.735,-4.834 7.398,-7.227 v 0 0 q 4.663,-2.392 10.18,-2.49 v 0 0 q 10.059,0 16.187,5.811 v 0 0 q 6.128,5.81 6.128,15.966 v 0 28.516 h -4.883 v -28.418 0 q 0,-8.203 -4.736,-12.695 v 0 0 q -4.639,-4.395 -12.549,-4.395 v 0 0 q -0.195,0 -0.342,0 v 0 0 q -7.617,0.049 -12.451,5.176 v 0 0 q -4.834,5.127 -4.834,12.842 v 0 z m 49.853,-24.707 v 0 0 q 0,-5.957 1.929,-10.84 v 0 0 q 1.929,-4.883 5.298,-8.057 v 0 0 q 3.369,-3.173 7.861,-4.882 v 0 0 q 4.493,-1.709 9.717,-1.709 v 0 0 q 6.69,0 12.158,2.905 v 0 0 q 5.469,2.905 8.35,8.667 v 0 -31.397 h 4.785 v 70.02 h -4.785 v -10.889 0 q -3.027,5.518 -8.594,8.594 v 0 0 q -5.566,3.076 -12.012,3.076 v 0 0 q -10.742,0 -17.724,-6.787 v 0 0 q -6.983,-6.787 -6.983,-18.701 z m 4.834,0 v 0 0 q 0,9.863 5.713,15.283 v 0 0 q 5.713,5.42 14.453,5.42 v 0 0 q 8.789,0 14.502,-5.811 v 0 0 q 5.713,-5.81 5.713,-14.99 v 0 0 q 0,-9.131 -5.786,-14.917 v 0 0 q -5.786,-5.786 -14.429,-5.786 v 0 0 q -5.664,0 -10.156,2.246 v 0 0 q -4.492,2.246 -7.251,7.031 v 0 0 q -2.759,4.786 -2.759,11.524 z m 59.913,-37.305 v 0 q -1.954,-0.976 -1.954,-3.467 v 0 0 q 0,-2.49 1.954,-3.466 v 0 0 q 0.976,-0.489 2.001,-0.44 v 0 l 2.002,0.44 v 0 q 1.954,0.976 1.954,3.418 v 0 0 q 0,2.539 -1.954,3.515 v 0 0 q -0.976,0.488 -2.002,0.488 v 0 z m -0.538,12.403 v 49.609 h 4.883 v -49.609 z"
         id="path3772"
         inkscape:connector-curvature="0"
         style="fill:#ffffff;fill-rule:evenodd" />
    </g>
  </g>
</svg>
